<?xml version="1.0" encoding="UTF-8"?>
<svg width="20px" height="20px" viewBox="0 0 512 512" xmlns="http://www.w3.org/2000/svg">
  <path d="M452.9 85.3H59.1C26.6 85.3 0 111.9 0 144.4v223.2C0 400.1 26.6 426.7 59.1 426.7h393.8c32.5 0 59.1-26.6 59.1-59.1V144.4c0-32.5-26.6-59.1-59.1-59.1z" fill="#ECEFF1"/>
  <path d="M452.9 85.3h-29.6L256 248.8 88.6 85.3H59.1C26.6 85.3 0 111.9 0 144.4v223.2C0 400.1 26.6 426.7 59.1 426.7h393.8c32.5 0 59.1-26.6 59.1-59.1V144.4c0-32.5-26.6-59.1-59.1-59.1z" fill="#CFD8DC"/>
  <path d="M512 144.4v223.2c0 32.5-26.6 59.1-59.1 59.1H59.1C26.6 426.7 0 400.1 0 367.6V144.4L256 298.7 512 144.4z" fill="#F44336"/>
  <path d="M59.1 426.7h364.1L256 222.3 59.1 426.7zm148.3-219L0 87.3v57.1l207.4 120.3zm47.2 31.8L512 92.3v52.1L254.6 239.5z" fill="#D32F2F"/>
  <path d="M512 144.4V87.3L254.6 295.6 512 144.4zM0 144.4v-57.1l207.4 176.4L0 144.4z" fill="#F5F5F5"/>
  <path d="M152.4 245.7L0 144.4v223.2l152.4-121.9zm207.2 38L512 367.6V144.4l-152.4 139.3z" fill="#FAFAFA"/>
</svg>