<svg width="24" height="24" viewBox="0 0 24 24" xmlns="http://www.w3.org/2000/svg">
  <path d="M11.9999 2.16094C15.2031 2.16094 15.5859 2.1750 16.8483 2.23125C18.0171 2.2875 18.6562 2.48125 19.0781 2.64375C19.6328 2.85937 20.0343 3.12188 20.4515 3.53906C20.8687 3.95625 21.1312 4.35937 21.3468 4.91406C21.5093 5.33594 21.7031 5.975 21.7593 7.14219C21.8156 8.40625 21.8296 8.78906 21.8296 11.9906C21.8296 15.1937 21.8156 15.5766 21.7593 16.8391C21.7031 18.0078 21.5093 18.6453 21.3468 19.0672C21.1312 19.6219 20.8687 20.025 20.4515 20.4422C20.0343 20.8594 19.6312 21.1219 19.0781 21.3375C18.6562 21.5 18.0156 21.6937 16.8483 21.75C15.5843 21.8062 15.2015 21.8203 11.9999 21.8203C8.79678 21.8203 8.41397 21.8062 7.15147 21.75C5.98272 21.6937 5.34366 21.5 4.92178 21.3375C4.36709 21.1219 3.96553 20.8594 3.54835 20.4422C3.13116 20.025 2.86865 19.6219 2.65303 19.0672C2.49053 18.6453 2.29678 18.0062 2.24053 16.8391C2.18428 15.575 2.17022 15.1922 2.17022 11.9906C2.17022 8.7875 2.18428 8.40469 2.24053 7.14219C2.29678 5.97344 2.49053 5.33594 2.65303 4.91406C2.86865 4.35937 3.13116 3.95781 3.54835 3.53906C3.96553 3.12188 4.36865 2.85937 4.92178 2.64375C5.34366 2.48125 5.98428 2.2875 7.15147 2.23125C8.41397 2.1750 8.79678 2.16094 11.9999 2.16094ZM11.9999 0C8.74053 0 8.33272 0.0140625 7.05147 0.0703125C5.77178 0.126563 4.90303 0.334687 4.14053 0.629687C3.35022 0.9375 2.68116 1.34687 2.01865 2.01094C1.35459 2.67344 0.945217 3.3425 0.637404 4.13125C0.342404 4.89375 0.13428 5.7625 0.0780426 7.04219C0.0217926 8.32344 0.0077301 8.73125 0.0077301 11.9906C0.0077301 15.25 0.0217926 15.6578 0.0780426 16.9391C0.13428 18.2188 0.342404 19.0875 0.637404 19.85C0.945217 20.6406 1.35459 21.3078 2.01865 21.9703C2.68116 22.6328 3.35022 23.0438 4.13897 23.3516C4.90147 23.6466 5.77022 23.8547 7.04991 23.9109C8.33116 23.9672 8.73897 23.9813 11.9984 23.9813C15.2578 23.9813 15.6656 23.9672 16.9468 23.9109C18.2249 23.8547 19.0952 23.6466 19.8578 23.3516C20.6468 23.0438 21.3155 22.6328 21.978 21.9703C22.6405 21.3078 23.0515 20.6406 23.3593 19.85C23.6546 19.0875 23.8624 18.2188 23.9187 16.9391C23.9749 15.6578 23.989 15.25 23.989 11.9906C23.989 8.73125 23.9749 8.32344 23.9187 7.04219C23.8624 5.7625 23.6546 4.89375 23.3593 4.13125C23.0515 3.3425 22.6405 2.67344 21.978 2.01094C21.3155 1.34687 20.6468 0.935937 19.8578 0.629687C19.0952 0.334687 18.2265 0.126563 16.9468 0.0703125C15.664 0.0140625 15.2578 0 11.9999 0Z" fill="#ffffff"/>
  <path d="M11.9999 5.83281C8.59678 5.83281 5.83353 8.59609 5.83353 11.9992C5.83353 15.4023 8.59678 18.1656 11.9999 18.1656C15.403 18.1656 18.1663 15.4023 18.1663 11.9992C18.1663 8.59609 15.403 5.83281 11.9999 5.83281ZM11.9999 15.9992C9.79053 15.9992 7.99991 14.2086 7.99991 11.9992C7.99991 9.78984 9.79053 7.99922 11.9999 7.99922C14.2093 7.99922 15.9999 9.78984 15.9999 11.9992C15.9999 14.2086 14.2093 15.9992 11.9999 15.9992Z" fill="#ffffff"/>
  <path d="M19.8468 5.59214C19.8468 6.38777 19.2 7.0329 18.406 7.0329C17.6104 7.0329 16.9652 6.38621 16.9652 5.59214C16.9652 4.7965 17.6104 4.15137 18.406 4.15137C19.2 4.15137 19.8468 4.7965 19.8468 5.59214Z" fill="#ffffff"/>
</svg>