<?xml version="1.0" encoding="UTF-8"?>
<svg width="24" height="24" viewBox="0 0 24 24" fill="none" xmlns="http://www.w3.org/2000/svg">
<path d="M12 0C5.376 0 0 5.376 0 12C0 18.624 5.376 24 12 24C18.624 24 24 18.624 24 12C24 5.376 18.624 0 12 0ZM17.568 8.16C17.388 10.056 16.608 14.664 16.212 16.788C16.044 17.688 15.708 18 15.396 18.036C14.7 18.108 14.172 17.592 13.5 17.16C12.444 16.5 11.844 16.08 10.824 15.444C9.636 14.712 10.404 14.304 11.088 13.596C11.268 13.416 14.34 10.68 14.4 10.44C14.4084 10.4004 14.4074 10.3593 14.3972 10.3204C14.387 10.2814 14.3678 10.2459 14.3416 10.2168C14.3153 10.1877 14.2828 10.1659 14.2466 10.1531C14.2104 10.1404 14.1719 10.137 14.1336 10.143C14.064 10.143 13.98 10.179 13.896 10.227C13.788 10.287 12.024 11.484 8.604 13.812C8.1 14.148 7.644 14.312 7.236 14.304C6.78 14.295 5.916 14.052 5.28 13.848C4.5 13.596 3.87 13.464 3.924 13.02C3.948 12.792 4.272 12.552 4.86 12.324C8.55 10.65 11.088 9.552 12.468 9.012C16.248 7.536 17.112 7.236 17.676 7.224C17.7992 7.22104 17.9228 7.24762 18.036 7.302C18.096 7.338 18.204 7.422 18.264 7.542C18.312 7.638 18.336 7.734 18.348 7.848C18.336 7.938 18.372 8.064 17.568 8.16Z" fill="white"/>
</svg>