<?xml version="1.0" encoding="UTF-8"?>
<svg width="24" height="24" viewBox="0 0 24 24" fill="none" xmlns="http://www.w3.org/2000/svg">
<path d="M12 0C5.3724 0 0 5.3724 0 12C0 18.6276 5.3724 24 12 24C18.6276 24 24 18.6276 24 12C24 5.3724 18.6276 0 12 0ZM18.3307 13.5102C18.3307 13.5102 19.5764 14.7397 19.9072 15.3622C19.9174 15.3756 19.9225 15.389 19.9277 15.3956C20.0793 15.6667 20.1308 15.8769 20.0524 16.0336C19.9198 16.3016 19.4427 16.4312 19.286 16.4416H17.045C16.838 16.4416 16.4237 16.3836 15.933 16.0202C15.5485 15.7283 15.167 15.2719 14.7977 14.8272C14.2485 14.1935 13.7664 13.6392 13.2812 13.6392C13.2125 13.6392 13.1447 13.6488 13.0797 13.6673C12.6693 13.7895 12.1664 14.3596 12.1664 15.7758C12.1664 16.1685 11.8597 16.4416 11.6392 16.4416H10.6335C10.2845 16.4416 8.03919 16.2788 6.04337 14.1744C3.63135 11.6217 1.41175 6.619 1.39004 6.5653C1.27075 6.26087 1.5341 6.095 1.81954 6.095H4.08056C4.43035 6.095 4.53833 6.32804 4.61512 6.52172C4.70468 6.74934 4.99271 7.47566 5.45675 8.31566C6.24375 9.7519 6.73025 10.407 7.31325 10.407C7.41352 10.407 7.51063 10.3779 7.60019 10.3231C8.23613 9.95023 8.12556 7.72546 8.08733 7.26659C8.08733 7.16913 8.08575 6.06075 7.74094 5.62517C7.49625 5.31554 7.08919 5.20031 6.8414 5.14629C6.92306 5.02588 7.0421 4.92706 7.18175 4.8562C7.56763 4.666 8.2274 4.634 8.88175 4.634H9.34062C10.0547 4.64429 10.2628 4.696 10.5453 4.76825C11.1128 4.90273 11.1283 5.31487 11.0752 6.61229C11.0597 7.0156 11.0442 7.47823 11.0442 8.02725C11.0442 8.14177 11.0391 8.266 11.0391 8.39854C11.0236 9.03447 11.005 9.75054 11.4787 10.0405C11.5527 10.0869 11.6353 10.1125 11.7198 10.1125C11.8748 10.1125 12.1851 10.1125 13.2348 8.33688C13.6989 7.49688 14.0723 6.51583 14.0723 6.51583C14.1275 6.38394 14.2663 6.13279 14.445 6.095H16.775C17.1547 6.095 17.4063 6.17179 17.4681 6.32544C17.5658 6.56116 17.4528 7.35333 16.2985 8.91446L15.7699 9.63571C14.7267 11.0366 14.7267 11.1292 15.8581 12.1939C16.5903 12.8771 16.9999 13.2467 17.4155 13.6392C17.4246 13.6487 17.4347 13.6587 17.4437 13.6678C17.7806 14.001 18.0662 14.2833 18.3307 13.5102Z" fill="white"/>
</svg>