<?xml version="1.0" encoding="UTF-8"?>
<svg width="20px" height="20px" viewBox="0 0 512 512" xmlns="http://www.w3.org/2000/svg">
  <circle cx="256" cy="256" r="256" fill="#25D366"/>
  <path d="M256 0c141.4 0 256 114.6 256 256S397.4 512 256 512 0 397.4 0 256 114.6 0 256 0" fill="#25D366"/>
  <path d="M392.3 175.3c-18.3-25.3-57.9-55.7-97.8-58.7-6.4-.5-12.8-.7-19.2-.7-13.3 0-26.4 1.6-38.9 4.7-30.2 7.7-56.3 26.8-76.4 52.1-20.1 25.4-33.2 58.3-33.2 93.8 0 25.3 6.7 49.5 18.6 70.9l2.9 5-12.4 45.2 46.4-12.2 4.8 2.7c20.5 10.5 43.5 16 67.1 16 7.6 0 15.1-.7 22.5-1.9 35.4-5.8 67.2-27.7 87.6-55.5 20.4-27.8 30.4-61.8 27-93.9-2.6-24.6-9.7-43.9-27-67.5zm-33.3 154.7c-14.8 18.2-36.4 30.6-59.9 34.6-10.2 1.7-20.8 1.7-31.1.2-13.4-2-26.2-7.2-37.9-14.9l-1.6-1 2.4-13.9c-32.5 15.4-58.1 42.2-71.5 75l10.4-38c1-3.6-.1-7.4-2.8-9.8-14.3-12.9-22.3-31.3-22.3-50.7 0-29.2 11.1-56.2 28.1-77.5 16.9-21.3 39.9-37 65.4-43.4 27.7-7 58.2-5.5 86.3 5.5 28 11 54.8 33.9 62.8 58.6 8.3 25.7.4 55.9-28.3 86.1z" fill="#FFFFFF"/>
  <path d="M345.2 292.3c-4.2-2.1-24.4-12-28.2-13.4-3.8-1.4-6.5-2.1-9.3 2.1-2.8 4.2-10.7 13.4-13.1 16.2-2.4 2.8-4.8 3.1-8.9 1-4.1-2.1-17.6-6.5-33.4-20.7-12.4-11-20.7-24.7-23.1-28.9-2.4-4.2-.3-6.5 1.8-8.6 1.8-1.9 4.2-4.8 6.2-7.2 2.1-2.4 2.8-4.1 4.1-6.9 1.4-2.8.7-5.2-.3-7.2-1-2.1-9.3-22.4-12.7-30.7-3.4-8.3-6.8-7.2-9.3-7.2-2.4 0-5.2-.3-7.9-.3-2.8 0-7.2 1-11 5.2s-14.4 14.1-14.4 34.3c0 20.3 14.8 39.9 16.8 42.6 2.1 2.8 29.2 44.5 70.7 62.3 9.9 4.3 17.6 6.8 23.6 8.7 9.9 3.1 18.9 2.7 26.1 1.6 8-1.2 24.4-10 27.9-19.7 3.4-9.6 3.4-17.8 2.4-19.7-1-1.7-3.8-2.8-8-4.8z" fill="#FFFFFF"/>
</svg>