<?xml version="1.0" encoding="UTF-8"?>
<svg width="24" height="24" viewBox="0 0 24 24" fill="none" xmlns="http://www.w3.org/2000/svg">
<path d="M12 0C5.37736 0 0 5.37736 0 12C0 18.6226 5.37736 24 12 24C18.6226 24 24 18.6226 24 12C24 5.37736 18.6226 0 12 0ZM17.9321 14.4623C17.8302 15.0943 17.5245 15.5849 16.9321 15.7736C15.8491 16.1132 12 16.1132 12 16.1132C12 16.1132 8.19811 16.1132 7.06792 15.7736C6.47547 15.5849 6.16981 15.0943 6.06792 14.4623C5.83019 13.0566 5.83019 11 5.83019 11C5.83019 11 5.83019 8.94339 6.06792 7.53774C6.16981 6.90566 6.47547 6.41509 7.06792 6.22642C8.19811 5.88679 12 5.88679 12 5.88679C12 5.88679 15.8491 5.88679 16.9321 6.22642C17.5245 6.41509 17.8302 6.90566 17.9321 7.53774C18.1698 8.94339 18.1698 11 18.1698 11C18.1698 11 18.1698 13.0566 17.9321 14.4623Z" fill="white"/>
<path d="M10.5664 13.4341L14.1132 11.0001L10.5664 8.56604V13.4341Z" fill="white"/>
</svg>