<?xml version="1.0" encoding="UTF-8"?>
<svg xmlns="http://www.w3.org/2000/svg" viewBox="0 0 630 360" width="630" height="360">
<rect fill="#239f40" width="630" height="120"/>
<rect fill="#ffffff" y="120" width="630" height="120"/>
<rect fill="#da0000" y="240" width="630" height="120"/>
<g transform="translate(8,0)">
<path fill="#da0000" d="m285.7 279.7c-0.3 0-0.9-0.1-1.2-0.4-0.6-0.5-0.7-1.3-0.2-1.9 0.4-0.5 1.2-0.6 1.8-0.3 0.6 0.4 0.8 1.2 0.4 1.9-0.4 0.5-0.8 0.7-1.2 0.7-0.2 0-0.3 0-0.5 0l0.9 0.1z"/>
<path fill="#da0000" d="m282.2 274.7c-0.2 0-0.3 0-0.5-0.1-0.7-0.3-1.1-1-0.8-1.7 0.2-0.5 0.8-0.9 1.3-0.9 0.2 0 0.3 0 0.5 0.1 0.7 0.3 1.1 1 0.8 1.7-0.2 0.5-0.7 0.9-1.3 0.9z"/>
<path fill="#da0000" d="m287.1 274.7c-0.6 0-1.1-0.3-1.3-0.9-0.2-0.6 0-1.4 0.8-1.7 0.2-0.1 0.3-0.1 0.5-0.1 0.6 0 1.1 0.3 1.3 0.9 0.2 0.6 0 1.4-0.8 1.7-0.1 0.1-0.3 0.1-0.5 0.1zm-2.1-3c-0.1 0-0.2 0-0.3 0-0.8-0.2-1.2-0.9-1.1-1.6 0.1-0.5 0.5-0.9 1.1-1 0.1 0 0.2 0 0.3 0 0.8 0.2 1.3 0.9 1.1 1.6-0.1 0.5-0.5 0.9-1.1 1z"/>
<path fill="#da0000" d="m284.4 271.7c-0.6-0.1-1-0.5-1.1-1-0.2-0.7 0.3-1.4 1.1-1.6 0.1 0 0.2 0 0.3 0 0.6 0.1 1 0.5 1.1 1 0.2 0.7-0.3 1.4-1.1 1.6-0.1 0-0.2 0-0.3 0zm3.2-1c-0.8-0.2-1.3-0.9-1.1-1.6 0.1-0.5 0.5-0.9 1.1-1 0.1 0 0.2 0 0.3 0 0.8 0.2 1.3 0.9 1.1 1.6-0.1 0.5-0.5 0.9-1.1 1-0.1 0-0.2 0-0.3 0zm-5.4-2c-0.6-0.1-1-0.5-1.1-1-0.2-0.7 0.3-1.4 1.1-1.6 0.1 0 0.2 0 0.3 0 0.6 0.1 1 0.5 1.1 1 0.2 0.7-0.3 1.4-1.1 1.6-0.1 0-0.2 0-0.3 0zm7.9 0c-0.1 0-0.2 0-0.3 0-0.8-0.2-1.2-0.9-1.1-1.6 0.1-0.5 0.5-0.9 1.1-1 0.1 0 0.2 0 0.3 0 0.8 0.2 1.3 0.9 1.1 1.6-0.1 0.5-0.5 0.9-1.1 1zm-11.9-1.1c-0.1-0.1-0.3-0.1-0.4-0.2-0.7-0.4-0.9-1.2-0.5-1.8 0.3-0.5 0.9-0.6 1.4-0.5 0.1 0.1 0.3 0.1 0.4 0.2 0.7 0.4 0.9 1.2 0.5 1.8-0.3 0.4-0.9 0.6-1.4 0.5zm16.1-0.1c-0.5 0.1-1.1-0.1-1.4-0.5-0.4-0.6-0.2-1.4 0.5-1.8 0.1-0.1 0.3-0.1 0.4-0.2 0.5-0.1 1.1 0.1 1.4 0.5 0.4 0.6 0.2 1.4-0.5 1.8-0.1 0.1-0.3 0.1-0.4 0.2zm-12.2-1.7c-0.1-0.1-0.3-0.1-0.4-0.2-0.7-0.4-0.9-1.2-0.5-1.8 0.3-0.5 0.9-0.6 1.4-0.5 0.1 0.1 0.3 0.1 0.4 0.2 0.7 0.4 0.9 1.2 0.5 1.8-0.3 0.5-0.9 0.6-1.4 0.5zm8.5-0.1c-0.5 0.1-1.1-0.1-1.4-0.5-0.4-0.6-0.2-1.4 0.5-1.8 0.1-0.1 0.3-0.1 0.4-0.2 0.5-0.1 1.1 0.1 1.4 0.5 0.4 0.6 0.2 1.4-0.5 1.8-0.1 0.1-0.3 0.1-0.4 0.2z"/>
<path fill="#da0000" d="m286.1 265.1c-0.2 0-0.4-0.1-0.5-0.2-0.5-0.3-0.7-0.9-0.5-1.5 0.2-0.5 0.8-0.8 1.3-0.6 0.2 0.1 0.4 0.1 0.5 0.2 0.5 0.3 0.7 0.9 0.5 1.5-0.2 0.5-0.8 0.8-1.3 0.6zm-3.5-0.1c-0.5 0.2-1.1-0.1-1.3-0.6-0.2-0.6 0-1.2 0.5-1.5 0.2-0.1 0.4-0.1 0.5-0.2 0.5-0.2 1.1 0.1 1.3 0.6 0.2 0.6 0 1.2-0.5 1.5-0.1 0.1-0.3 0.2-0.5 0.2zm-9.6-0.7c-0.5 0.2-1.1-0.1-1.3-0.6-0.2-0.6 0-1.2 0.5-1.5 0.2-0.1 0.4-0.1 0.5-0.2 0.5-0.2 1.1 0.1 1.3 0.6 0.2 0.6 0 1.2-0.5 1.5-0.2 0.1-0.3 0.2-0.5 0.2zm22.6 0c-0.2 0-0.4-0.1-0.5-0.2-0.5-0.3-0.7-0.9-0.5-1.5 0.2-0.5 0.8-0.8 1.3-0.6 0.2 0.1 0.4 0.1 0.5 0.2 0.5 0.3 0.7 0.9 0.5 1.5-0.2 0.5-0.8 0.8-1.3 0.6zm-10.5-1.2h-2c-0.2-0.3-0.3-0.7-0.5-1 1 0 2 0 3.1 0-0.2 0.3-0.4 0.7-0.6 1zm-11.9-0.3c-0.1-0.1-0.2-0.2-0.3-0.3-0.4-0.5-0.3-1.2 0.3-1.5 0.4-0.3 0.9-0.2 1.3 0.1 0.1 0.1 0.2 0.2 0.3 0.3 0.4 0.5 0.3 1.2-0.3 1.5-0.3 0.3-0.9 0.2-1.3-0.1zm24.2 0c-0.4 0.3-1 0.4-1.3 0.1-0.5-0.4-0.6-1-0.3-1.5 0.1-0.1 0.2-0.2 0.3-0.3 0.4-0.3 1-0.4 1.3-0.1 0.5 0.4 0.6 1 0.3 1.5-0.1 0.1-0.2 0.2-0.3 0.3zm-20-3.5c-0.4 0.3-1 0.4-1.3 0.1-0.5-0.4-0.6-1-0.3-1.5 0.1-0.1 0.2-0.2 0.3-0.3 0.4-0.3 1-0.4 1.3-0.1 0.5 0.4 0.6 1 0.3 1.5-0.1 0.1-0.2 0.2-0.3 0.3zm15.9 0c-0.1-0.1-0.2-0.2-0.3-0.3-0.4-0.5-0.3-1.2 0.3-1.5 0.4-0.3 0.9-0.2 1.3 0.1 0.1 0.1 0.2 0.2 0.3 0.3 0.4 0.5 0.3 1.2-0.3 1.5-0.3 0.3-0.9 0.2-1.3-0.1zm-10.7-0.4l-1.6-1.3c0.3-0.2 0.5-0.4 0.8-0.7 0.3 0.2 0.5 0.5 0.8 0.7 0.3 0.2 0.6 0.5 0.9 0.7-0.3 0.2-0.6 0.4-0.9 0.6zm-5.1-0.5c-0.4 0.3-1 0.4-1.3 0.1-0.5-0.4-0.6-1-0.3-1.5 0.1-0.1 0.2-0.2 0.3-0.3 0.4-0.3 1-0.4 1.3-0.1 0.5 0.4 0.6 1 0.3 1.5-0.1 0.1-0.2 0.2-0.3 0.3zm11-0.1c-0.1-0.1-0.2-0.2-0.3-0.3-0.4-0.5-0.3-1.2 0.3-1.5 0.4-0.3 0.9-0.2 1.3 0.1 0.1 0.1 0.2 0.2 0.3 0.3 0.4 0.5 0.3 1.2-0.3 1.5-0.4 0.3-0.9 0.2-1.3-0.1z"/>
<path fill="#da0000" d="m289 257c-0.1-0.1-0.1-0.3-0.2-0.4-0.2-0.6 0.1-1.2 0.8-1.4 0.5-0.1 1 0.1 1.3 0.5 0.1 0.1 0.1 0.3 0.2 0.4 0.2 0.6-0.1 1.2-0.8 1.4-0.5 0.1-1-0.1-1.3-0.5zm-9.4 0c-0.3 0.4-0.8 0.6-1.3 0.5-0.6-0.2-1-0.7-0.8-1.4 0.1-0.1 0.1-0.3 0.2-0.4 0.3-0.4 0.8-0.6 1.3-0.5 0.6 0.2 1 0.7 0.8 1.4-0.1 0.1-0.1 0.3-0.2 0.4zm15.1-0.8c-0.3-0.4-0.3-1 0.1-1.4 0.4-0.3 1-0.3 1.4 0.1 0.1 0.1 0.1 0.2 0.2 0.3 0.3 0.4 0.3 1-0.1 1.4-0.4 0.3-1 0.3-1.4-0.1-0.1-0.1-0.1-0.2-0.2-0.3zm-20.5 0c-0.1-0.1-0.1-0.2-0.2-0.3-0.3-0.4-0.3-1 0.1-1.4 0.4-0.3 1-0.3 1.4 0.1 0.1 0.1 0.1 0.2 0.2 0.3 0.3 0.4 0.3 1-0.1 1.4-0.4 0.3-1 0.3-1.4-0.1zm11.2-1.3l-0.5-2.1c0.4 0 0.8 0 1.2 0l-0.5 2.1h-0.2zm-6.7-1c-0.1-0.1-0.1-0.2-0.2-0.3-0.3-0.4-0.3-1 0.1-1.4 0.4-0.3 1-0.3 1.4 0.1 0.1 0.1 0.1 0.2 0.2 0.3 0.3 0.4 0.3 1-0.1 1.4-0.4 0.4-1 0.3-1.4-0.1zm13.6 0c-0.1-0.1-0.1-0.2-0.2-0.3-0.3-0.4-0.3-1 0.1-1.4 0.4-0.3 1-0.3 1.4 0.1 0.1 0.1 0.1 0.2 0.2 0.3 0.3 0.4 0.3 1-0.1 1.4-0.4 0.3-1 0.3-1.4-0.1zm-13-2.9c0-0.1-0.1-0.3-0.1-0.4-0.1-0.6 0.4-1.2 1-1.2 0.5 0 0.9 0.3 1.1 0.8 0 0.1 0.1 0.3 0.1 0.4 0.1 0.6-0.4 1.2-1 1.2-0.5 0-0.9-0.3-1.1-0.8zm12.4 0c-0.2 0.4-0.6 0.7-1.1 0.8-0.6 0.1-1.1-0.4-1-1.2 0-0.1 0.1-0.3 0.1-0.4 0.2-0.4 0.6-0.7 1.1-0.8 0.6-0.1 1.1 0.4 1 1.2 0 0.1-0.1 0.3-0.1 0.4zm-16.5-0.4c0-0.1-0.1-0.3-0.1-0.4-0.1-0.6 0.4-1.2 1-1.2 0.5 0 0.9 0.3 1.1 0.8 0 0.1 0.1 0.3 0.1 0.4 0.1 0.6-0.4 1.2-1 1.2-0.5 0-0.9-0.3-1.1-0.8zm20.1 0c-0.2 0.4-0.6 0.7-1.1 0.8-0.6 0.1-1.1-0.4-1-1.2 0-0.1 0.1-0.3 0.1-0.4 0.2-0.4 0.6-0.7 1.1-0.8 0.6-0.1 1.1 0.4 1 1.2 0 0.1-0.1 0.3-0.1 0.4zm-11.2 0.6l0.5-2c0.2 0.1 0.4 0.2 0.6 0.3 0.2 0.1 0.4 0.2 0.6 0.4l-1.7 1.3zm-8.7-2.5c-0.1-0.1-0.2-0.2-0.2-0.3-0.2-0.5 0.1-1.1 0.6-1.2 0.4-0.1 0.9 0.1 1.1 0.5 0.1 0.1 0.1 0.2 0.2 0.3 0.2 0.5-0.1 1.1-0.6 1.2-0.5 0.1-0.9-0.1-1.1-0.5zm23.3 0c0.1 0.1 0.2 0.2 0.2 0.3 0.2 0.5-0.1 1.1-0.6 1.2-0.4 0.1-0.9-0.1-1.1-0.5-0.1-0.1-0.1-0.2-0.2-0.3-0.2-0.5 0.1-1.1 0.6-1.2 0.4-0.1 0.9 0.1 1.1 0.5zm-19.4-0.4c-0.1-0.1-0.2-0.2-0.2-0.3-0.2-0.5 0.1-1.1 0.6-1.2 0.4-0.1 0.9 0.1 1.1 0.5 0.1 0.1 0.1 0.2 0.2 0.3 0.2 0.5-0.1 1.1-0.6 1.2-0.5 0.1-0.9-0.1-1.1-0.5zm15.6 0c0.1 0.1 0.2 0.2 0.2 0.3 0.2 0.5-0.1 1.1-0.6 1.2-0.4 0.1-0.9-0.1-1.1-0.5-0.1-0.1-0.1-0.2-0.2-0.3-0.2-0.5 0.1-1.1 0.6-1.2 0.4-0.1 0.9 0.1 1.1 0.5z"/>
<path fill="#da0000" d="m281.6 248.7l0.7-0.8 1.4 1.2c-0.2 0.3-0.5 0.5-0.7 0.8l-1.4-1.2zm5.6-0.1l-1.5-1.1c0.2-0.2 0.5-0.5 0.7-0.7l1.4 1.2-0.6 0.6zm-11-0.3c-0.1-0.1-0.2-0.1-0.3-0.2-0.4-0.2-0.6-0.7-0.3-1.1 0.2-0.3 0.7-0.4 1-0.2 0.1 0.1 0.2 0.1 0.3 0.2 0.4 0.2 0.6 0.7 0.3 1.1-0.2 0.3-0.7 0.4-1 0.2zm16.3 0c0.1 0.1 0.2 0.1 0.3 0.2 0.4 0.2 0.6 0.7 0.3 1.1-0.2 0.3-0.7 0.4-1 0.2-0.1-0.1-0.2-0.1-0.3-0.2-0.4-0.2-0.6-0.7-0.3-1.1 0.2-0.3 0.7-0.4 1-0.2zm-12.2-1.9c-0.1-0.1-0.2-0.1-0.3-0.2-0.4-0.2-0.6-0.7-0.3-1.1 0.2-0.3 0.7-0.4 1-0.2 0.1 0.1 0.2 0.1 0.3 0.2 0.4 0.2 0.6 0.7 0.3 1.1-0.2 0.3-0.7 0.4-1 0.2zm8.2 0c0.1 0.1 0.2 0.1 0.3 0.2 0.4 0.2 0.6 0.7 0.3 1.1-0.2 0.3-0.7 0.4-1 0.2-0.1-0.1-0.2-0.1-0.3-0.2-0.4-0.2-0.6-0.7-0.3-1.1 0.2-0.3 0.7-0.4 1-0.2zm-9.3-3.1c-0.3-0.1-0.6-0.3-0.7-0.7-0.1-0.6 0.2-1.1 0.8-1.2 0.5-0.1 0.9 0.2 1.1 0.7 0.3 0.1 0.6 0.3 0.7 0.7 0.1 0.6-0.2 1.1-0.8 1.2-0.5 0.1-0.9-0.2-1.1-0.7zm10.1 0c-0.2 0.5-0.6 0.8-1.1 0.7-0.6-0.1-0.9-0.6-0.8-1.2 0.1-0.4 0.4-0.6 0.7-0.7 0.2-0.5 0.6-0.8 1.1-0.7 0.6 0.1 0.9 0.6 0.8 1.2-0.1 0.4-0.4 0.6-0.7 0.7z"/>
<path fill="#da0000" d="m285.3 242.4l0.5-1.9c0.1 0 0.2 0.1 0.3 0.1 0.1 0 0.2 0.1 0.3 0.1l-0.5 1.9-0.6-0.2zm-2.1 0l-0.5-1.9c0.1 0 0.2-0.1 0.3-0.1 0.1 0 0.2-0.1 0.3-0.1l0.5 1.9-0.6 0.2z"/>
</g>
</svg>