<?xml version="1.0" encoding="UTF-8"?>
<svg xmlns="http://www.w3.org/2000/svg" viewBox="0 0 900 450" width="900" height="450">
<rect fill="#00AFCA" width="900" height="450"/>
<g fill="#FEC50C">
  <circle cx="140" cy="225" r="70"/>
  <path d="M 140,155 A 70,70 0 0 1 140,295 A 70,70 0 0 1 140,155 z M 140,175 L 140,226.25 L 211.25,226.25 C 200,243.75 175,258.75 140,258.75 C 110,258.75 88.75,243.75 73.75,226.25 L 140,226.25 z"/>
</g>
<g fill="#FEC50C">
  <path d="M 310,95 L 320,80 L 330,95 L 320,65 z"/>
  <path d="M 340,95 L 350,80 L 360,95 L 350,65 z"/>
  <path d="M 370,95 L 380,80 L 390,95 L 380,65 z"/>
  <path d="M 400,95 L 410,80 L 420,95 L 410,65 z"/>
  <path d="M 430,95 L 440,80 L 450,95 L 440,65 z"/>
  <path d="M 460,95 L 470,80 L 480,95 L 470,65 z"/>
  <path d="M 490,95 L 500,80 L 510,95 L 500,65 z"/>
  <path d="M 520,95 L 530,80 L 540,95 L 530,65 z"/>
  <path d="M 550,95 L 560,80 L 570,95 L 560,65 z"/>
  <path d="M 580,95 L 590,80 L 600,95 L 590,65 z"/>
  <path d="M 610,95 L 620,80 L 630,95 L 620,65 z"/>
  <path d="M 640,95 L 650,80 L 660,95 L 650,65 z"/>
  <path d="M 670,95 L 680,80 L 690,95 L 680,65 z"/>
  <path d="M 700,95 L 710,80 L 720,95 L 710,65 z"/>
  <path d="M 730,95 L 740,80 L 750,95 L 740,65 z"/>
  <path d="M 760,95 L 770,80 L 780,95 L 770,65 z"/>
</g>
<path fill="#FEC50C" d="M 300,125 L 800,125 L 800,325 L 300,325 z"/>
<g fill="#00AFCA">
  <path d="M 320,145 L 330,165 L 350,165 L 335,178 L 343,200 L
           320,185 L 297,200 L 305,178 L 290,165 L 310,165 z"/>
  <path d="M 380,145 L 390,165 L 410,165 L 395,178 L 403,200 L
           380,185 L 357,200 L 365,178 L 350,165 L 370,165 z"/>
  <path d="M 440,145 L 450,165 L 470,165 L 455,178 L 463,200 L
           440,185 L 417,200 L 425,178 L 410,165 L 430,165 z"/>
  <path d="M 500,145 L 510,165 L 530,165 L 515,178 L 523,200 L
           500,185 L 477,200 L 485,178 L 470,165 L 490,165 z"/>
  <path d="M 560,145 L 570,165 L 590,165 L 575,178 L 583,200 L
           560,185 L 537,200 L 545,178 L 530,165 L 550,165 z"/>
  <path d="M 620,145 L 630,165 L 650,165 L 635,178 L 643,200 L
           620,185 L 597,200 L 605,178 L 590,165 L 610,165 z"/>
  <path d="M 680,145 L 690,165 L 710,165 L 695,178 L 703,200 L
           680,185 L 657,200 L 665,178 L 650,165 L 670,165 z"/>
  <path d="M 740,145 L 750,165 L 770,165 L 755,178 L 763,200 L
           740,185 L 717,200 L 725,178 L 710,165 L 730,165 z"/>
  <path d="M 320,250 L 330,270 L 350,270 L 335,283 L 343,305 L
           320,290 L 297,305 L 305,283 L 290,270 L 310,270 z"/>
  <path d="M 380,250 L 390,270 L 410,270 L 395,283 L 403,305 L
           380,290 L 357,305 L 365,283 L 350,270 L 370,270 z"/>
  <path d="M 440,250 L 450,270 L 470,270 L 455,283 L 463,305 L
           440,290 L 417,305 L 425,283 L 410,270 L 430,270 z"/>
  <path d="M 500,250 L 510,270 L 530,270 L 515,283 L 523,305 L
           500,290 L 477,305 L 485,283 L 470,270 L 490,270 z"/>
  <path d="M 560,250 L 570,270 L 590,270 L 575,283 L 583,305 L
           560,290 L 537,305 L 545,283 L 530,270 L 550,270 z"/>
  <path d="M 620,250 L 630,270 L 650,270 L 635,283 L 643,305 L
           620,290 L 597,305 L 605,283 L 590,270 L 610,270 z"/>
  <path d="M 680,250 L 690,270 L 710,270 L 695,283 L 703,305 L
           680,290 L 657,305 L 665,283 L 650,270 L 670,270 z"/>
  <path d="M 740,250 L 750,270 L 770,270 L 755,283 L 763,305 L
           740,290 L 717,305 L 725,283 L 710,270 L 730,270 z"/>
</g>
<g fill="#FEC50C">
  <path d="M 310,355 L 320,370 L 330,355 L 320,385 z"/>
  <path d="M 340,355 L 350,370 L 360,355 L 350,385 z"/>
  <path d="M 370,355 L 380,370 L 390,355 L 380,385 z"/>
  <path d="M 400,355 L 410,370 L 420,355 L 410,385 z"/>
  <path d="M 430,355 L 440,370 L 450,355 L 440,385 z"/>
  <path d="M 460,355 L 470,370 L 480,355 L 470,385 z"/>
  <path d="M 490,355 L 500,370 L 510,355 L 500,385 z"/>
  <path d="M 520,355 L 530,370 L 540,355 L 530,385 z"/>
  <path d="M 550,355 L 560,370 L 570,355 L 560,385 z"/>
  <path d="M 580,355 L 590,370 L 600,355 L 590,385 z"/>
  <path d="M 610,355 L 620,370 L 630,355 L 620,385 z"/>
  <path d="M 640,355 L 650,370 L 660,355 L 650,385 z"/>
  <path d="M 670,355 L 680,370 L 690,355 L 680,385 z"/>
  <path d="M 700,355 L 710,370 L 720,355 L 710,385 z"/>
  <path d="M 730,355 L 740,370 L 750,355 L 740,385 z"/>
  <path d="M 760,355 L 770,370 L 780,355 L 770,385 z"/>
</g>
</svg>