<?xml version="1.0" encoding="UTF-8"?>
<svg width="120" height="40" viewBox="0 0 120 40" fill="none" xmlns="http://www.w3.org/2000/svg">
  <!-- G -->
  <path d="M14.5 29C11.5 29 9.16667 28 7.5 26C5.83333 24 5 21.5 5 18.5C5 15.5 5.83333 13 7.5 11C9.16667 9 11.5 8 14.5 8C17.5 8 19.8333 9 21.5 11L19 13.5C17.6667 12.1667 16.1667 11.5 14.5 11.5C12.8333 11.5 11.5 12.1667 10.5 13.5C9.5 14.8333 9 16.5 9 18.5C9 20.5 9.5 22.1667 10.5 23.5C11.5 24.8333 12.8333 25.5 14.5 25.5C16.1667 25.5 17.6667 24.8333 19 23.5V21H14.5V17.5H23V25C21.3333 27.6667 18.5 29 14.5 29Z" fill="#182E45"/>
  
  <!-- E -->
  <path d="M34 29H24V9H34V12.5H27.5V17H33V20.5H27.5V25.5H34V29Z" fill="#182E45"/>
  
  <!-- N -->
  <path d="M46 29H42.5V9H46L51.5 19.5L57 9H60.5V29H57V16L51.5 26L46 16V29Z" fill="#182E45"/>
  
  <!-- O -->
  <path d="M73 29C70 29 67.5 28 65.5 26C63.5 24 62.5 21.5 62.5 18.5C62.5 15.5 63.5 13 65.5 11C67.5 9 70 8 73 8C76 8 78.5 9 80.5 11C82.5 13 83.5 15.5 83.5 18.5C83.5 21.5 82.5 24 80.5 26C78.5 28 76 29 73 29ZM73 25.5C75 25.5 76.6667 24.8333 78 23.5C79.3333 22.1667 80 20.5 80 18.5C80 16.5 79.3333 14.8333 78 13.5C76.6667 12.1667 75 11.5 73 11.5C71 11.5 69.3333 12.1667 68 13.5C66.6667 14.8333 66 16.5 66 18.5C66 20.5 66.6667 22.1667 68 23.5C69.3333 24.8333 71 25.5 73 25.5Z" fill="#182E45"/>
  
  <!-- V -->
  <path d="M95 29H91.5L86 9H89.5L93.5 24L97.5 9H101L105 24L109 9H112.5L107 29H103.5L99.5 14L95 29Z" fill="#182E45"/>
  
  <!-- A -->
  <path d="M124 29H120.5L112 9H115.5L122 25L128.5 9H132L123.5 29H120Z" fill="#182E45"/>
  
  <!-- TM mark -->
  <text x="116" y="9" font-family="Arial" font-size="4" fill="#182E45">TM</text>
  
  <!-- Blue arc -->
  <path d="M93.5 7.5C100.127 7.5 105.5 12.8726 105.5 19.5C105.5 26.1274 100.127 31.5 93.5 31.5C86.8726 31.5 81.5 26.1274 81.5 19.5C81.5 12.8726 86.8726 7.5 93.5 7.5Z" stroke="url(#blue_gradient)" stroke-width="5" stroke-dasharray="1 55 170 20" />
  
  <defs>
    <linearGradient id="blue_gradient" x1="81.5" y1="19.5" x2="105.5" y2="19.5" gradientUnits="userSpaceOnUse">
      <stop offset="0" stop-color="#3444E4"/>
      <stop offset="1" stop-color="#9A90F4"/>
    </linearGradient>
  </defs>
</svg>