<?xml version="1.0" encoding="UTF-8"?>
<svg width="140" height="50" viewBox="0 0 140 50" fill="none" xmlns="http://www.w3.org/2000/svg">
  <!-- G -->
  <path d="M15.5 34.5C12.5 34.5 10 33.5 8 31.5C6 29.5 5 27 5 24C5 21 6 18.5 8 16.5C10 14.5 12.5 13.5 15.5 13.5C18.5 13.5 21 14.5 23 16.5L20.5 19C19.2 17.7 17.5 17 15.5 17C13.5 17 11.8 17.7 10.5 19C9.2 20.3 8.5 22 8.5 24C8.5 26 9.2 27.7 10.5 29C11.8 30.3 13.5 31 15.5 31C17.5 31 19.2 30.3 20.5 29V26H15.5V22.5H24V30.5C22 33 19.2 34.5 15.5 34.5Z" fill="#182E45"/>
  
  <!-- E -->
  <path d="M36 34H26V14H36V17.5H29.5V22H35V25.5H29.5V30.5H36V34Z" fill="#182E45"/>
  
  <!-- N -->
  <path d="M48 34H44.5V14H48L53.5 24.5L59 14H62.5V34H59V21L53.5 31L48 21V34Z" fill="#182E45"/>
  
  <!-- O -->
  <path d="M75 34.5C72 34.5 69.5 33.5 67.5 31.5C65.5 29.5 64.5 27 64.5 24C64.5 21 65.5 18.5 67.5 16.5C69.5 14.5 72 13.5 75 13.5C78 13.5 80.5 14.5 82.5 16.5C84.5 18.5 85.5 21 85.5 24C85.5 27 84.5 29.5 82.5 31.5C80.5 33.5 78 34.5 75 34.5ZM75 31C77 31 78.7 30.3 80 29C81.3 27.7 82 26 82 24C82 22 81.3 20.3 80 19C78.7 17.7 77 17 75 17C73 17 71.3 17.7 70 19C68.7 20.3 68 22 68 24C68 26 68.7 27.7 70 29C71.3 30.3 73 31 75 31Z" fill="#182E45"/>
  
  <!-- V -->
  <path d="M97 34H93.5L88 14H91.5L95.5 29L99.5 14H103L107 29L111 14H114.5L109 34H105.5L101.5 19L97 34Z" fill="#182E45"/>
  
  <!-- A -->
  <path d="M125 34H121.5L113 14H116.5L123 30L129.5 14H133L124.5 34H121Z" fill="#182E45"/>
  
  <!-- TM mark -->
  <text x="133" y="15" font-family="Arial" font-size="5" fill="#182E45">TM</text>
  
  <!-- Circular blue gradient arc -->
  <path d="M124 24C124 32.8366 116.837 40 108 40C99.1634 40 92 32.8366 92 24C92 15.1634 99.1634 8 108 8C116.837 8 124 15.1634 124 24Z" stroke="url(#paint0_linear)" stroke-width="6" stroke-dasharray="0 45 180 45"/>
  
  <defs>
    <linearGradient id="paint0_linear" x1="108" y1="5" x2="108" y2="43" gradientUnits="userSpaceOnUse">
      <stop offset="0" stop-color="#3444E4"/>
      <stop offset="1" stop-color="#9A90F4"/>
    </linearGradient>
  </defs>
</svg>