<svg width="106" height="28" viewBox="0 0 106 28" fill="none" xmlns="http://www.w3.org/2000/svg">
  <path d="M16.3809 6.03711H18.6426V19.2725H16.3809V17.4264C15.1885 18.9033 13.4639 19.6418 11.207 19.6418C9.25586 19.6418 7.67773 18.9492 6.47266 17.5641C5.27539 16.1789 4.67676 14.4062 4.67676 12.2461C4.67676 10.1094 5.27539 8.35059 6.47266 6.9707C7.67773 5.58398 9.25586 4.89062 11.207 4.89062C13.4639 4.89062 15.1885 5.6291 16.3809 7.10605V6.03711ZM11.5762 17.6787C12.9844 17.6787 14.1217 17.1781 14.9883 16.1768C15.8548 15.1697 16.2881 13.8672 16.2881 12.2693C16.2881 10.6715 15.8548 9.36914 14.9883 8.36211C14.1217 7.35508 12.9844 6.85156 11.5762 6.85156C10.1852 6.85156 9.05176 7.34824 8.17773 8.3416C7.31152 9.33496 6.87842 10.6488 6.87842 12.2832C6.87842 13.8945 7.31445 15.1883 8.18652 16.1645C9.05859 17.1406 10.1881 17.6787 11.5762 17.6787Z" fill="#182E45"/>
  <path d="M26.3691 6.03711V7.96973C27.2305 6.58301 28.5508 5.88965 30.3301 5.88965H30.7344V8.10254H29.9258C28.7754 8.10254 27.8477 8.43164 27.1426 9.08984C26.4375 9.74121 26.085 10.8076 26.085 12.2891V19.2725H23.8945V6.03711H26.3691Z" fill="#182E45"/>
  <path d="M31.8369 12.6113C31.8369 10.3887 32.501 8.60742 33.8291 7.26758C35.1631 5.92773 36.8965 5.25781 39.0293 5.25781C41.1855 5.25781 42.9277 5.92773 44.2559 7.26758C45.584 8.60742 46.248 10.3887 46.248 12.6113C46.248 14.834 45.584 16.6152 44.2559 17.9551C42.9277 19.2949 41.1855 19.9648 39.0293 19.9648C36.8965 19.9648 35.1631 19.2949 33.8291 17.9551C32.501 16.6152 31.8369 14.834 31.8369 12.6113ZM34.0381 12.6113C34.0381 14.1504 34.46 15.4033 35.3037 16.3701C36.1475 17.334 37.3926 17.8159 39.0391 17.8159C40.6855 17.8159 41.9248 17.334 42.7568 16.3701C43.5889 15.4033 44.0049 14.1504 44.0049 12.6113C44.0049 11.0723 43.5889 9.81934 42.7568 8.85254C41.9248 7.88574 40.6855 7.40234 39.0391 7.40234C37.3926 7.40234 36.1475 7.88574 35.3037 8.85254C34.46 9.81934 34.0381 11.0723 34.0381 12.6113Z" fill="#182E45"/>
  <path d="M53.4238 19.2725H51.1797V6.03711H53.4238V8.05703C54.5058 6.62891 56.0664 5.91484 58.1055 5.91484C59.9316 5.91484 61.2832 6.40137 62.1602 7.37441C63.043 8.34746 63.4844 9.83398 63.4844 12.834V19.2725H61.2402V12.9902C61.2402 10.9062 60.9404 9.47754 60.3418 8.7041C59.7402 7.93066 58.804 7.54395 57.5332 7.54395C56.2324 7.54395 55.1904 8.01367 54.4062 8.95312C53.6191 9.89258 53.2266 11.0889 53.2266 12.5361V19.2725H53.4238Z" fill="#182E45"/>
  <path d="M71.1582 19.669C69.2012 19.669 67.6338 19.1156 66.4561 18.0088C65.2783 16.9049 64.6895 15.3486 64.6895 13.3398C64.6895 11.375 65.2754 9.82617 66.4473 8.69336C67.6221 7.56055 69.1152 6.99414 70.9268 6.99414C72.7822 6.99414 74.2344 7.57422 75.2832 8.73438C76.3291 9.89453 76.8633 11.4102 76.8828 13.2812V13.8652H66.8643C66.9883 15.1826 67.4336 16.1777 68.2002 16.8506C68.9668 17.5234 70.041 17.8599 71.4229 17.8599C72.2568 17.8599 73.0771 17.7832 73.8838 17.6299C74.6904 17.4766 75.3018 17.3174 75.7178 17.1523V18.9365C75.3428 19.1016 74.7471 19.2637 73.9307 19.4229C73.1201 19.5869 72.1914 19.669 71.1582 19.669ZM70.9268 8.69434C69.8584 8.69434 68.9814 9.0127 68.2959 9.64941C67.6133 10.2861 67.1797 11.1523 66.9951 12.248H74.6123C74.6123 11.1406 74.251 10.2773 73.5283 9.6582C72.8057 9.0332 71.9717 8.71094 70.9268 8.71094V8.69434Z" fill="#182E45"/>
  <path d="M83.9658 19.2725H81.7217V6.03711H83.9658V8.05703C85.0479 6.62891 86.6084 5.91484 88.6475 5.91484C90.4736 5.91484 91.8252 6.40137 92.7022 7.37441C93.585 8.34746 94.0264 9.83398 94.0264 12.834V19.2725H91.7822V12.9902C91.7822 10.9062 91.4824 9.47754 90.8838 8.7041C90.2822 7.93066 89.3459 7.54395 88.0752 7.54395C86.7744 7.54395 85.7324 8.01367 84.9482 8.95312C84.1611 9.89258 83.7686 11.0889 83.7686 12.5361V19.2725H83.9658Z" fill="#182E45"/>
  <path d="M102.141 19.669C100.227 19.669 98.707 19.1377 97.5801 18.0752C96.4561 17.0127 95.8936 15.4709 95.8936 13.4502C95.8936 11.3662 96.4688 9.80566 97.6191 8.76875C98.7695 7.73184 100.358 7.21339 102.386 7.21339C103.277 7.21339 104.149 7.30547 105.001 7.48964C105.852 7.67382 106.454 7.86573 106.809 8.06339V9.98769C106.428 9.78417 105.87 9.59812 105.131 9.42952C104.398 9.26093 103.599 9.17663 102.735 9.17663C101.336 9.17663 100.289 9.51935 99.5889 10.2048C98.8857 10.8902 98.5342 11.9624 98.5342 13.4214C98.5342 14.8413 98.8887 15.8961 99.5977 16.5857C100.307 17.2752 101.368 17.62 102.782 17.62C103.632 17.62 104.444 17.5385 105.22 17.3755C105.989 17.2076 106.577 17.0254 106.97 16.8288V18.7443C106.571 18.9583 105.965 19.1448 105.153 19.3037C104.341 19.4627 103.289 19.5422 102.141 19.5422V19.669Z" fill="#182E45"/>
  <path fill-rule="evenodd" clip-rule="evenodd" d="M78.2344 14.6494C78.2344 9.17726 82.6771 4.72656 88.1426 4.72656C93.608 4.72656 98.0508 9.17726 98.0508 14.6494C98.0508 20.1216 93.608 24.5723 88.1426 24.5723C82.6771 24.5723 78.2344 20.1216 78.2344 14.6494Z" fill="url(#paint0_linear_0_1)"/>
  
  <!-- TM mark -->
  <text x="101" y="6" font-family="Arial" font-size="4" fill="#182E45">TM</text>
  
  <defs>
    <linearGradient id="paint0_linear_0_1" x1="78" y1="8.5" x2="98.0508" y2="24.5723" gradientUnits="userSpaceOnUse">
      <stop stop-color="#3444E4"/>
      <stop offset="1" stop-color="#9A90F4"/>
    </linearGradient>
  </defs>
</svg>