<svg width="120" height="40" viewBox="0 0 120 40" xmlns="http://www.w3.org/2000/svg">
  <g fill="none">
    <path d="M16.0762 26.8906C14.7441 26.8906 13.5703 26.543 12.5547 25.8477C11.5391 25.1523 10.7539 24.1758 10.1992 22.918C9.64453 21.6602 9.36719 20.2227 9.36719 18.6055C9.36719 16.9883 9.64453 15.5508 10.1992 14.293C10.7539 13.0352 11.5391 12.0586 12.5547 11.3633C13.5703 10.668 14.7441 10.3203 16.0762 10.3203C17.3574 10.3203 18.4609 10.625 19.3867 11.2344C20.3125 11.8438 20.9609 12.707 21.332 13.8242H21.332V10.6484H24.6797V26.5625H21.332V23.3867H21.332C20.9609 24.5039 20.3125 25.3672 19.3867 25.9766C18.4609 26.5859 17.3574 26.8906 16.0762 26.8906ZM16.9531 23.9766C17.8125 23.9766 18.5547 23.7578 19.1797 23.3203C19.8047 22.8828 20.2852 22.2734 20.6211 21.4922C20.957 20.7109 21.125 19.8125 21.125 18.7969C21.125 17.7812 20.957 16.8828 20.6211 16.1016C20.2852 15.3203 19.8047 14.7109 19.1797 14.2734C18.5547 13.8359 17.8125 13.6172 16.9531 13.6172C16.0938 13.6172 15.3516 13.8359 14.7266 14.2734C14.1016 14.7109 13.6289 15.3203 13.3086 16.1016C12.9883 16.8828 12.8281 17.7812 12.8281 18.7969C12.8281 19.8125 12.9883 20.7109 13.3086 21.4922C13.6289 22.2734 14.1016 22.8828 14.7266 23.3203C15.3516 23.7578 16.0938 23.9766 16.9531 23.9766Z" fill="#182E45"/>
    <path d="M31.8984 26.5625V13.5781H28.3711V10.6484H31.8984V5.97656H35.2227V10.6484H39.5742V13.5781H35.2227V26.5625H31.8984Z" fill="#182E45"/>
    <path d="M47.8203 26.8906C46.1406 26.8906 44.668 26.5352 43.4023 25.8242C42.1367 25.1133 41.1602 24.1211 40.4727 22.8477C39.7852 21.5742 39.4414 20.0938 39.4414 18.4062C39.4414 16.7188 39.7852 15.2422 40.4727 13.9766C41.1602 12.7109 42.1328 11.7266 43.3906 11.0234C44.6484 10.3203 46.1133 9.96875 47.7852 9.96875C48.9258 9.96875 49.9883 10.168 50.9727 10.5664C51.957 10.9648 52.8125 11.5508 53.5391 12.3242C54.2656 13.0977 54.832 14.0508 55.2383 15.1836C55.6445 16.3164 55.8477 17.6172 55.8477 19.0859V20.1836H41.7305V17.457H52.5703C52.5703 16.7148 52.4141 16.0586 52.1016 15.4883C51.7891 14.918 51.3594 14.4688 50.8125 14.1406C50.2656 13.8125 49.6289 13.6484 48.9023 13.6484C48.1445 13.6484 47.4727 13.832 46.8867 14.1992C46.3008 14.5664 45.8398 15.0547 45.5039 15.6641C45.168 16.2734 44.9961 16.9531 44.9883 17.7031V19.4844C44.9883 20.4297 45.1641 21.2422 45.5156 21.9219C45.8672 22.6016 46.3594 23.1211 46.9922 23.4805C47.625 23.8398 48.375 24.0195 49.2422 24.0195C49.8281 24.0195 50.3594 23.9375 50.8359 23.7734C51.3125 23.6094 51.7188 23.3633 52.0547 23.0352C52.3906 22.707 52.6406 22.3047 52.8047 21.8281L55.8008 22.1797C55.5898 23.1953 55.1641 24.0742 54.5234 24.8164C53.8828 25.5586 53.0586 26.1367 52.0508 26.5508C51.043 26.9648 49.8984 27.1719 48.6172 27.1719L47.8203 26.8906Z" fill="#182E45"/>
    <path d="M67.0781 26.8906C65.3984 26.8906 63.9297 26.5312 62.6719 25.8125C61.4141 25.0938 60.4531 24.0977 59.7891 22.8242C59.125 21.5508 58.793 20.0781 58.793 18.4062C58.793 16.7344 59.1289 15.2617 59.8008 13.9883C60.4727 12.7148 61.4375 11.7188 62.6953 11C63.9531 10.2812 65.418 9.92188 67.0898 9.92188C68.7617 9.92188 70.2266 10.2812 71.4844 11C72.7422 11.7188 73.707 12.7148 74.3789 13.9883C75.0508 15.2617 75.3867 16.7344 75.3867 18.4062C75.3867 20.0781 75.0488 21.5508 74.373 22.8242C73.6973 24.0977 72.7285 25.0938 71.4668 25.8125C70.2051 26.5312 68.7383 26.8906 67.0781 26.8906ZM67.0781 23.8125C67.9219 23.8125 68.6602 23.5977 69.293 23.168C69.9258 22.7383 70.418 22.1289 70.7695 21.3398C71.1211 20.5508 71.2969 19.6172 71.2969 18.5391C71.2969 17.4531 71.1211 16.5156 70.7695 15.7266C70.418 14.9375 69.9297 14.3281 69.3047 13.8984C68.6797 13.4688 67.9453 13.2539 67.1016 13.2539C66.2578 13.2539 65.5195 13.4688 64.8867 13.8984C64.2539 14.3281 63.7617 14.9375 63.4102 15.7266C63.0586 16.5156 62.8828 17.4531 62.8828 18.5391C62.8828 19.625 63.0547 20.5625 63.3984 21.3516C63.7422 22.1406 64.2305 22.75 64.8633 23.1797C65.4961 23.6094 66.2344 23.8242 67.0781 23.8125Z" fill="#182E45"/>
    <path d="M86.9219 26.8906C84.6953 26.8906 82.9492 26.2422 81.6836 24.9453C80.418 23.6484 79.7852 21.8047 79.7852 19.4141V10.6484H83.1094V19.2109C83.1094 20.6719 83.457 21.7852 84.1523 22.5508C84.8477 23.3164 85.8359 23.6992 87.1172 23.6992C88.3984 23.6992 89.3906 23.3164 90.0938 22.5508C90.7969 21.7852 91.1484 20.6719 91.1484 19.2109V10.6484H94.4023V19.4141C94.4023 21.8047 93.7617 23.6484 92.4805 24.9453C91.1992 26.2422 89.3281 26.8906 86.9219 26.8906Z" fill="#182E45"/>
    <path d="M103.074 26.8906C101.48 26.8906 100.066 26.5391 98.832 25.8359C97.5977 25.1328 96.6328 24.1445 95.9375 22.8711C95.2422 21.5977 94.8945 20.1211 94.8945 18.4414C94.8945 16.7617 95.2422 15.2852 95.9375 14.0117C96.6328 12.7383 97.5977 11.75 98.832 11.0469C100.066 10.3438 101.48 9.99219 103.074 9.99219C104.668 9.99219 106.078 10.3438 107.305 11.0469C108.531 11.75 109.492 12.7383 110.188 14.0117C110.883 15.2852 111.23 16.7617 111.23 18.4414C111.23 20.1211 110.883 21.5977 110.188 22.8711C109.492 24.1445 108.531 25.1328 107.305 25.8359C106.078 26.5391 104.668 26.8906 103.074 26.8906ZM103.074 23.8008C104.23 23.8008 105.145 23.4258 105.816 22.6758C106.488 21.9258 106.824 20.8008 106.824 19.3008V17.5703C106.824 16.0703 106.488 14.9453 105.816 14.1953C105.145 13.4453 104.23 13.0703 103.074 13.0703C101.926 13.0703 101.016 13.4453 100.344 14.1953C99.6719 14.9453 99.3359 16.0703 99.3359 17.5703V19.3008C99.3359 20.8008 99.6719 21.9258 100.344 22.6758C101.016 23.4258 101.926 23.8008 103.074 23.8008Z" fill="#182E45"/>
    
    <!-- Add "TM" text -->
    <text x="112" y="10" font-family="Arial" font-size="5" fill="#182E45">TM</text>
    
    <!-- Blue ring -->
    <path d="M105 19C105 25.6275 99.6275 31 93 31C86.3725 31 81 25.6275 81 19C81 12.3725 86.3725 7 93 7C99.6275 7 105 12.3725 105 19Z" stroke="url(#paint0_linear)" stroke-width="4"/>
  </g>
  <defs>
    <linearGradient id="paint0_linear" x1="81" y1="19" x2="105" y2="19" gradientUnits="userSpaceOnUse">
      <stop stop-color="#3444E4"/>
      <stop offset="1" stop-color="#9A90F4"/>
    </linearGradient>
  </defs>
</svg>