<svg width="89" height="34" viewBox="0 0 89 34" fill="none" xmlns="http://www.w3.org/2000/svg">
  <path d="M11.1464 6.08696C14.0454 6.08696 16.2464 7.56522 16.4984 10.1739H13.5995C13.3985 8.93913 12.4435 8.34783 11.0964 8.34783C9.27639 8.34783 8.42439 9.48696 8.42439 11.8957C8.42439 14.3043 9.27639 15.4435 11.0964 15.4435C12.5925 15.4435 13.5995 14.65 13.5995 13.1217H16.4984C16.4984 15.8304 14.0454 17.7043 11.0464 17.7043C7.29639 17.7043 5.32639 15.3913 5.32639 11.8957C5.32639 8.4 7.29639 6.08696 11.1464 6.08696Z" fill="#0C1220"/>
  <path d="M17.9942 0.5H21.0922V17.5H17.9942V0.5Z" fill="#0C1220"/>
  <path d="M28.3379 17.7043C24.9379 17.7043 22.6379 15.5482 22.6379 11.8957C22.6379 8.24348 24.9379 6.08696 28.3379 6.08696C31.7379 6.08696 34.0379 8.24348 34.0379 11.8957C34.0379 15.5482 31.7379 17.7043 28.3379 17.7043ZM28.3379 15.4435C29.9879 15.4435 30.9379 14.2522 30.9379 11.8957C30.9379 9.53913 29.9879 8.34783 28.3379 8.34783C26.6879 8.34783 25.7379 9.53913 25.7379 11.8957C25.7379 14.2522 26.6879 15.4435 28.3379 15.4435Z" fill="#0C1220"/>
  <path d="M49.2339 6.29565V17.5H46.3839V16.3087C45.7339 17.2609 44.5339 17.7043 43.1839 17.7043C40.7329 17.7043 39.2839 16.2522 39.2839 13.5652V6.29565H42.3339V13.0174C42.3339 14.5978 43.0839 15.3913 44.4839 15.3913C45.9339 15.3913 46.7839 14.5457 46.7839 12.8609V6.29565H49.2339Z" fill="#0C1220"/>
  <path d="M57.1802 6.08696C60.0292 6.08696 62.3802 8.24348 62.3802 11.8957C62.3802 15.5482 60.0292 17.7043 57.1802 17.7043C55.5302 17.7043 54.1802 17.0087 53.4302 15.7652V23H50.3802V6.29565H53.2302V8.03044C53.9802 6.78696 55.3302 6.08696 57.1802 6.08696ZM56.1802 15.4435C57.8302 15.4435 59.2802 14.3043 59.2802 11.8957C59.2802 9.48696 57.8302 8.34783 56.1802 8.34783C54.5302 8.34783 53.0802 9.48696 53.0802 11.8957C53.0802 14.3043 54.5302 15.4435 56.1802 15.4435Z" fill="#0C1220"/>
  <path d="M70.7753 6.08696C74.8753 6.08696 77.3253 8.66087 77.3253 11.8957C77.3753 12.3913 77.3753 12.8869 77.3253 13.3304H67.8253C68.0763 15.0674 69.1763 15.8087 70.5753 15.8087C71.9753 15.8087 72.9253 15.4435 73.3753 14.6H77.0763C76.3253 16.7043 74.0253 17.7043 70.5753 17.7043C66.9753 17.7043 64.7753 15.4435 64.7753 11.8957C64.7753 8.34783 66.9753 6.08696 70.7753 6.08696ZM70.8253 8.03044C69.5253 8.03044 68.5253 8.77169 68.0253 10.3H73.6753C73.3253 8.77169 72.4253 8.03044 70.8253 8.03044Z" fill="#0C1220"/>
  <path d="M85.4206 6.08696C86.2706 6.08696 86.9206 6.19131 87.2706 6.29565V9.48696C86.5706 9.1739 85.4706 9.07044 84.9206 9.07044C83.1706 9.07044 82.5706 9.91739 82.5706 11.7391V17.5H79.5706V6.29565H82.4206V8.13479C82.8706 7.03914 84.0206 6.08696 85.4206 6.08696Z" fill="#0C1220"/>
  <circle cx="73.5" cy="17" r="15.5" stroke="#5927E5" stroke-width="3"/>
</svg>